<svg width="1024" height="1024" viewBox="0 0 1024 1024" fill="none" xmlns="http://www.w3.org/2000/svg">
  <defs>
    <linearGradient id="petalGradient" x1="0" y1="0" x2="1" y2="1">
      <stop offset="0%" stop-color="#FFD6DF"/>
      <stop offset="50%" stop-color="#F9A8B8"/>
      <stop offset="100%" stop-color="#F48FA5"/>
    </linearGradient>

    <filter id="softShadow" x="-20%" y="-20%" width="140%" height="140%">
      <feDropShadow dx="0" dy="12" stdDeviation="18" flood-color="#D98B9A" flood-opacity="0.18"/>
    </filter>
  </defs>

  <!-- Background -->
  <rect width="1024" height="1024" rx="0" fill="#FEF6F8"/>

  <!-- Left Bracket -->
  <path
    d="M340 330
       C250 420 250 604 340 694
       C355 709 390 705 400 680
       C408 660 396 638 382 620
       C330 560 330 464 382 404
       C396 386 408 364 400 344
       C390 319 355 315 340 330Z"
    fill="url(#petalGradient)"
    filter="url(#softShadow)"
  />

  <!-- Right Bracket -->
  <path
    d="M684 330
       C774 420 774 604 684 694
       C669 709 634 705 624 680
       C616 660 628 638 642 620
       C694 560 694 464 642 404
       C628 386 616 364 624 344
       C634 319 669 315 684 330Z"
    fill="url(#petalGradient)"
    filter="url(#softShadow)"
  />

  <!-- Sync Arrows -->
  <path
    d="M520 395
       C610 395 655 470 650 525
       L682 500
       C690 494 702 500 702 510
       V600
       C702 612 688 618 680 610
       L600 540
       C590 532 598 516 610 516
       L632 532
       C634 486 595 440 520 440"
    fill="url(#petalGradient)"
    filter="url(#softShadow)"
  />

  <path
    d="M504 629
       C414 629 369 554 374 499
       L342 524
       C334 530 322 524 322 514
       V424
       C322 412 336 406 344 414
       L424 484
       C434 492 426 508 414 508
       L392 492
       C390 538 429 584 504 584"
    fill="url(#petalGradient)"
    filter="url(#softShadow)"
  />

  <!-- Checkmark -->
  <path
    d="M438 760
       C430 752 430 738 438 730
       C446 722 460 722 468 730
       L500 762
       L564 698
       C572 690 586 690 594 698
       C602 706 602 720 594 728
       L514 808
       C506 816 492 816 484 808
       Z"
    fill="url(#petalGradient)"
    filter="url(#softShadow)"
  />
</svg>
